<svg width="158" height="56" viewBox="0 0 158 56" fill="none" xmlns="http://www.w3.org/2000/svg">
<path d="M143.94 12.5744H156.528V15.6862H147.641V19.293H155.797V22.169H147.641V26.2944H156.717V29.4061H143.94V12.5744Z" fill="#1A1A2E"/>
<path d="M131.917 20.4952H134.793C135.218 20.4952 135.626 20.4638 136.019 20.4009C136.412 20.3381 136.758 20.2202 137.056 20.0473C137.355 19.8587 137.591 19.5994 137.764 19.2694C137.952 18.9393 138.047 18.5072 138.047 17.9728C138.047 17.4385 137.952 17.0063 137.764 16.6763C137.591 16.3462 137.355 16.0948 137.056 15.9219C136.758 15.7333 136.412 15.6076 136.019 15.5447C135.626 15.4819 135.218 15.4504 134.793 15.4504H131.917V20.4952ZM128.216 12.5744H135.807C136.86 12.5744 137.756 12.7316 138.494 13.0459C139.233 13.3445 139.83 13.7453 140.286 14.2482C140.758 14.7511 141.095 15.3247 141.3 15.9691C141.52 16.6134 141.63 17.2813 141.63 17.9728C141.63 18.6486 141.52 19.3165 141.3 19.9766C141.095 20.6209 140.758 21.1946 140.286 21.6975C139.83 22.2004 139.233 22.609 138.494 22.9233C137.756 23.2219 136.86 23.3712 135.807 23.3712H131.917V29.4061H128.216V12.5744Z" fill="#1A1A2E"/>
<path d="M116.194 20.4952H119.07C119.494 20.4952 119.903 20.4638 120.296 20.4009C120.689 20.3381 121.034 20.2202 121.333 20.0473C121.631 19.8587 121.867 19.5994 122.04 19.2694C122.229 18.9393 122.323 18.5072 122.323 17.9728C122.323 17.4385 122.229 17.0063 122.04 16.6763C121.867 16.3462 121.631 16.0948 121.333 15.9219C121.034 15.7333 120.689 15.6076 120.296 15.5447C119.903 15.4819 119.494 15.4504 119.07 15.4504H116.194V20.4952ZM112.493 12.5744H120.083C121.136 12.5744 122.032 12.7316 122.771 13.0459C123.51 13.3445 124.107 13.7453 124.562 14.2482C125.034 14.7511 125.372 15.3247 125.576 15.9691C125.796 16.6134 125.906 17.2813 125.906 17.9728C125.906 18.6486 125.796 19.3165 125.576 19.9766C125.372 20.6209 125.034 21.1946 124.562 21.6975C124.107 22.2004 123.51 22.609 122.771 22.9233C122.032 23.2219 121.136 23.3712 120.083 23.3712H116.194V29.4061H112.493V12.5744Z" fill="#1A1A2E"/>
<path d="M97.2066 12.5744H109.795V15.6862H100.908V19.293H109.064V22.169H100.908V26.2944H109.984V29.4061H97.2066V12.5744Z" fill="#1A1A2E"/>
<path d="M86.52 15.6862H81.4752V12.5744H95.2658V15.6862H90.221V29.4061H86.52V15.6862Z" fill="#1A1A2E"/>
<path d="M70.0086 23.8191C70.0086 24.3849 70.1107 24.8642 70.315 25.2571C70.5193 25.65 70.7865 25.9722 71.1165 26.2236C71.4623 26.4594 71.863 26.6401 72.3188 26.7658C72.7746 26.8758 73.246 26.9309 73.7332 26.9309C74.0633 26.9309 74.4169 26.9073 74.794 26.8601C75.1712 26.7973 75.5248 26.6873 75.8549 26.5301C76.1849 26.3729 76.4599 26.1608 76.6799 25.8936C76.9 25.6107 77.01 25.2571 77.01 24.8328C77.01 24.377 76.8607 24.0077 76.5621 23.7248C76.2792 23.4419 75.902 23.2062 75.4305 23.0176C74.9591 22.829 74.4247 22.664 73.8275 22.5226C73.2303 22.3811 72.6253 22.224 72.0123 22.0511C71.3837 21.8939 70.7708 21.7053 70.1736 21.4853C69.5764 21.2496 69.042 20.951 68.5706 20.5895C68.0991 20.228 67.7141 19.7801 67.4155 19.2458C67.1326 18.6958 66.9911 18.0357 66.9911 17.2656C66.9911 16.4012 67.1719 15.6547 67.5333 15.0261C67.9105 14.3818 68.3977 13.8474 68.9949 13.4231C69.5921 12.9988 70.2679 12.6844 71.0222 12.4801C71.7766 12.2758 72.531 12.1737 73.2853 12.1737C74.1654 12.1737 75.0062 12.2758 75.8077 12.4801C76.6249 12.6687 77.3479 12.983 77.9765 13.4231C78.6051 13.8631 79.1002 14.4289 79.4617 15.1204C79.8388 15.7962 80.0274 16.6213 80.0274 17.5956H76.4442C76.4128 17.0927 76.3028 16.6763 76.1142 16.3462C75.9413 16.0162 75.7056 15.7569 75.407 15.5683C75.1084 15.3797 74.7626 15.2461 74.3697 15.1675C73.9925 15.089 73.5761 15.0497 73.1203 15.0497C72.8217 15.0497 72.5231 15.0811 72.2245 15.144C71.9259 15.2068 71.6509 15.3168 71.3994 15.474C71.1637 15.6312 70.9672 15.8276 70.8101 16.0633C70.6529 16.2991 70.5743 16.5977 70.5743 16.9591C70.5743 17.2892 70.6372 17.5564 70.7629 17.7607C70.8887 17.965 71.1323 18.1536 71.4937 18.3264C71.8709 18.4993 72.3817 18.6722 73.026 18.8451C73.6861 19.0179 74.5426 19.2379 75.5956 19.5051C75.9099 19.568 76.3421 19.6858 76.8921 19.8587C77.4579 20.0159 78.0158 20.2752 78.5659 20.6367C79.1159 20.9981 79.5874 21.4853 79.9803 22.0982C80.3889 22.6954 80.5932 23.4655 80.5932 24.4085C80.5932 25.1785 80.4439 25.8936 80.1453 26.5537C79.8467 27.2137 79.3988 27.7874 78.8016 28.2746C78.2201 28.746 77.4893 29.1154 76.6092 29.3825C75.7449 29.6497 74.739 29.7833 73.5918 29.7833C72.6646 29.7833 71.7609 29.6654 70.8808 29.4297C70.0164 29.2097 69.2464 28.856 68.5706 28.3689C67.9105 27.8817 67.384 27.2609 66.9911 26.5065C66.5982 25.7522 66.4096 24.8564 66.4254 23.8191H70.0086Z" fill="#1A1A2E"/>
<path d="M153.525 37.8208H157.679V38.495H154.325V40.408H157.452V41.0822H154.325V43.1637H157.705V43.8379H153.525V37.8208Z" fill="#1A1A2E"/>
<path d="M148.473 39.6327C148.383 39.2057 148.184 38.8855 147.875 38.672C147.571 38.4585 147.209 38.3517 146.788 38.3517C146.428 38.3517 146.119 38.4191 145.861 38.554C145.608 38.6888 145.397 38.8714 145.229 39.1018C145.066 39.3265 144.945 39.5849 144.866 39.8771C144.788 40.1692 144.748 40.4726 144.748 40.7872C144.748 41.1299 144.788 41.4558 144.866 41.7648C144.945 42.0682 145.066 42.335 145.229 42.5654C145.397 42.7901 145.611 42.9699 145.869 43.1047C146.127 43.2396 146.436 43.307 146.796 43.307C147.06 43.307 147.293 43.2649 147.496 43.1806C147.703 43.0907 147.88 42.9699 148.026 42.8182C148.178 42.6609 148.296 42.4755 148.38 42.262C148.465 42.0485 148.515 41.8182 148.532 41.571H149.333C149.254 42.3294 148.993 42.9193 148.549 43.3407C148.105 43.7621 147.498 43.9728 146.729 43.9728C146.262 43.9728 145.855 43.8941 145.507 43.7368C145.158 43.5739 144.869 43.3519 144.639 43.071C144.408 42.7901 144.234 42.4586 144.116 42.0766C144.004 41.6946 143.948 41.2844 143.948 40.8462C143.948 40.408 144.009 39.9979 144.133 39.6158C144.257 39.2282 144.436 38.8911 144.672 38.6045C144.914 38.318 145.212 38.0933 145.566 37.9304C145.925 37.7618 146.335 37.6775 146.796 37.6775C147.111 37.6775 147.408 37.7197 147.689 37.804C147.97 37.8882 148.22 38.0118 148.439 38.1748C148.659 38.3377 148.841 38.5427 148.987 38.79C149.133 39.0315 149.229 39.3124 149.274 39.6327H148.473Z" fill="#1A1A2E"/>
<path d="M135.108 37.8208H135.959L139.127 42.7002H139.144V37.8208H139.903V43.8379H139.026L135.883 39.0091H135.866V43.8379H135.108V37.8208Z" fill="#1A1A2E"/>
<path d="M127.004 37.8208H131.159V38.495H127.805V40.408H130.931V41.0822H127.805V43.1637H131.184V43.8379H127.004V37.8208Z" fill="#1A1A2E"/>
<path d="M122.222 43.0879C121.986 43.4025 121.694 43.63 121.346 43.7705C120.998 43.9053 120.646 43.9728 120.292 43.9728C119.843 43.9728 119.441 43.8913 119.087 43.7284C118.733 43.5598 118.433 43.3351 118.186 43.0542C117.938 42.7733 117.75 42.4502 117.621 42.085C117.492 41.7199 117.427 41.3406 117.427 40.9473C117.427 40.5091 117.486 40.0934 117.604 39.7001C117.728 39.3012 117.907 38.9529 118.143 38.6551C118.385 38.3573 118.683 38.1214 119.037 37.9472C119.396 37.7674 119.815 37.6775 120.292 37.6775C120.618 37.6775 120.924 37.7169 121.211 37.7955C121.503 37.8686 121.762 37.9865 121.986 38.1495C122.217 38.3124 122.408 38.5203 122.559 38.7731C122.717 39.0203 122.823 39.3209 122.88 39.6748H122.079C122.04 39.4445 121.967 39.2478 121.86 39.0849C121.753 38.9164 121.621 38.7787 121.464 38.672C121.307 38.5652 121.127 38.4866 120.924 38.436C120.728 38.3798 120.517 38.3517 120.292 38.3517C119.927 38.3517 119.613 38.4248 119.349 38.5708C119.09 38.7169 118.877 38.9107 118.708 39.1523C118.545 39.3883 118.424 39.6608 118.346 39.9698C118.267 40.2732 118.228 40.585 118.228 40.9052C118.228 41.2198 118.273 41.5232 118.363 41.8154C118.452 42.1019 118.584 42.3575 118.759 42.5822C118.933 42.8014 119.146 42.9783 119.399 43.1132C119.658 43.2424 119.955 43.307 120.292 43.307C120.607 43.307 120.885 43.2564 121.127 43.1553C121.368 43.0542 121.571 42.9165 121.734 42.7424C121.902 42.5626 122.028 42.3547 122.113 42.1187C122.197 41.8772 122.234 41.6187 122.222 41.3434H120.301V40.6692H122.939V43.8379H122.433L122.222 43.0879Z" fill="#1A1A2E"/>
<path d="M113.007 37.8208H113.808V43.8379H113.007V37.8208Z" fill="#1A1A2E"/>
<path d="M104.904 37.8208H105.704V43.1637H108.89V43.8379H104.904V37.8208Z" fill="#1A1A2E"/>
<path d="M96.8001 37.8208H97.6007V43.1637H100.786V43.8379H96.8001V37.8208Z" fill="#1A1A2E"/>
<path d="M88.6967 37.8208H92.8513V38.495H89.4973V40.408H92.6238V41.0822H89.4973V43.1637H92.8766V43.8379H88.6967V37.8208Z" fill="#1A1A2E"/>
<path d="M81.8622 38.495H79.8565V37.8208H84.6685V38.495H82.6628V43.8379H81.8622V38.495Z" fill="#1A1A2E"/>
<path d="M71.0164 37.8208H71.8675L75.0362 42.7002H75.053V37.8208H75.8115V43.8379H74.9351L71.7917 39.0091H71.7748V43.8379H71.0164V37.8208Z" fill="#1A1A2E"/>
<path d="M66.5845 37.8206H67.3851V43.8377H66.5845V37.8206Z" fill="#1A1A2E"/>
<path d="M17.9405 35.6364C13.6414 31.6672 9.5388 28.2205 5.84754 24.3773C1.78937 20.1561 0.558956 14.9787 2.63437 9.37878C4.71719 3.76406 9.0496 0.851067 14.883 0.165441C16.825 -0.0643362 18.8077 0.013498 20.7757 0.00979187C30.7932 -0.0013264 40.8108 0.00237969 50.8283 0.00979187C51.451 0.00979187 52.0699 0.0950297 52.711 0.528642C52.4516 0.639825 52.1996 0.806597 51.929 0.85107C48.6862 1.41069 47.9747 2.01849 47.9413 5.21684C47.8301 15.3641 47.819 25.5077 47.8079 35.6549C47.8005 40.6952 47.8153 45.7392 47.9413 50.7795C48.0191 53.9037 48.7529 54.6338 51.7474 55.1897C52.0662 55.249 52.3738 55.3676 52.6554 55.7827C47.6485 55.7827 42.6453 55.7827 37.6384 55.7827C37.6013 55.6567 37.568 55.5307 37.5309 55.4047C38.1646 55.2676 38.7947 55.1082 39.4321 54.997C41.0554 54.7191 41.8967 53.6888 42.1079 52.1396C42.2636 50.987 42.3562 49.8122 42.3562 48.6485C42.371 34.9323 42.371 21.2197 42.3636 7.5035C42.3599 1.33657 41.6521 0.636122 35.5074 0.636122C29.2367 0.636122 22.9697 0.584228 16.7027 0.650938C9.32014 0.732472 4.8469 6.63627 7.1002 13.6667C7.91554 16.2128 9.52769 18.5958 11.1658 20.7639C12.5926 22.6503 14.4901 24.218 16.3172 25.756C17.5662 26.8085 18.0887 27.9389 17.9701 29.5621C17.8404 31.3929 17.9405 33.2312 17.9405 35.6364Z" fill="#1A1A2E"/>
<path d="M8.27127 34.4319C7.99702 35.0657 7.73018 35.6994 7.44481 36.3295C4.91726 41.9331 6.43305 48.6559 11.0694 52.3879C15.7798 56.1793 22.3952 56.3534 27.139 52.8104C33.4504 48.1 34.0582 38.6272 28.2916 32.8346C25.3452 29.8771 22.1283 27.1939 19.119 24.2958C18.5408 23.7399 18.1146 22.78 18.0627 21.9758C17.9182 19.8522 18.0146 17.7101 18.0146 15.101C20.7126 17.5581 23.0993 19.7114 25.4675 21.8831C27.7801 23.9993 29.9704 26.2637 32.3979 28.2391C40.8478 35.1213 39.4877 48.3261 29.4664 53.7221C21.3167 58.1138 6.48123 56.6462 0.384715 44.9795C-0.182316 43.8973 -0.163788 43.2079 0.718261 42.2777C2.82332 40.0429 4.78754 37.6748 6.79624 35.3473C7.14832 34.9397 7.4374 34.4801 7.75242 34.0465C7.9229 34.1725 8.09708 34.3022 8.27127 34.4319Z" fill="#1A1A2E"/>
</svg>
