<svg width="227" height="241" viewBox="0 0 227 241" fill="none" xmlns="http://www.w3.org/2000/svg">
<path d="M77.1625 153.189C58.6722 136.127 41.0266 121.311 25.1504 104.79C7.69619 86.6442 2.40415 64.3883 11.3305 40.3162C20.2888 16.1804 38.9226 3.65845 64.012 0.711176C72.3646 -0.27656 80.8924 0.0580231 89.3566 0.0420919C132.442 -0.00570174 175.528 0.0102295 218.614 0.0420919C221.292 0.0420919 223.954 0.4085 226.711 2.27245C225.595 2.75039 224.511 3.46729 223.348 3.65846C209.4 6.06408 206.34 8.67679 206.196 22.4254C205.718 66.0451 205.67 109.649 205.623 153.269C205.591 174.935 205.654 196.617 206.196 218.284C206.531 231.714 209.687 234.852 222.567 237.242C223.938 237.497 225.261 238.007 226.472 239.791C204.937 239.791 183.418 239.791 161.883 239.791C161.724 239.249 161.581 238.708 161.421 238.166C164.147 237.577 166.857 236.892 169.598 236.414C176.58 235.219 180.198 230.79 181.107 224.131C181.776 219.176 182.175 214.126 182.175 209.123C182.239 150.162 182.239 91.2165 182.207 32.255C182.191 5.74547 179.146 2.73447 152.718 2.73447C125.747 2.73447 98.793 2.5114 71.8386 2.79816C40.0862 3.14865 20.8467 28.5271 30.5381 58.7486C34.0449 69.6934 40.9788 79.9372 48.0243 89.2569C54.1612 97.3659 62.3224 104.105 70.1808 110.716C75.5526 115.241 77.8001 120.1 77.29 127.078C76.7321 134.948 77.1625 142.85 77.1625 153.189Z" fill="#374151"/>
<path d="M35.5749 148.011C34.3953 150.735 33.2476 153.46 32.0203 156.168C21.1492 180.256 27.6686 209.155 47.6095 225.198C67.8692 241.496 96.3221 242.244 116.725 227.014C143.871 206.766 146.485 166.045 121.682 141.145C109.01 128.432 95.1744 116.898 82.2311 104.439C79.7445 102.05 77.9114 97.9234 77.6882 94.4663C77.0666 85.3377 77.481 76.1295 77.481 64.9139C89.0853 75.4763 99.3506 84.7324 109.536 94.0681C119.483 103.165 128.903 112.899 139.344 121.39C175.687 150.974 169.837 207.737 126.735 230.933C91.6835 249.812 27.8759 243.503 1.65467 193.351C-0.784146 188.7 -0.704456 185.736 3.08925 181.738C12.1431 172.131 20.5913 161.951 29.2308 151.946C30.7451 150.194 31.9884 148.218 33.3433 146.354C34.0765 146.896 34.8257 147.454 35.5749 148.011Z" fill="#374151"/>
</svg>
