<svg width="40" height="40" viewBox="0 0 40 40" fill="none" xmlns="http://www.w3.org/2000/svg">
<rect width="40" height="40" rx="6" fill="#F0F0F0"/>
<path d="M10 30L11.4125 24.8642C10.5409 23.3608 10.0829 21.6567 10.0837 19.9092C10.0862 14.4458 14.5533 10 20.0419 10C22.7053 10.0008 25.2056 11.0333 27.0862 12.9067C28.9659 14.78 30.0008 17.27 30 19.9183C29.9975 25.3825 25.5304 29.8283 20.0419 29.8283C18.3756 29.8275 16.7337 29.4117 15.2792 28.6217L10 30ZM15.5237 26.8275C16.9271 27.6567 18.2668 28.1533 20.0385 28.1542C24.6002 28.1542 28.3162 24.4592 28.3187 19.9167C28.3204 15.365 24.622 11.675 20.0452 11.6733C15.4802 11.6733 11.7667 15.3683 11.7651 19.91C11.7642 21.7642 12.3101 23.1525 13.227 24.605L12.3905 27.645L15.5237 26.8275ZM25.0582 22.2742C24.9962 22.1708 24.8304 22.1092 24.5809 21.985C24.3322 21.8608 23.1089 21.2617 22.8803 21.1792C22.6526 21.0967 22.4868 21.055 22.3202 21.3033C22.1544 21.5508 21.6771 22.1092 21.5323 22.2742C21.3874 22.4392 21.2417 22.46 20.993 22.3358C20.7444 22.2117 19.9422 21.9508 18.9919 21.1067C18.2525 20.45 17.7527 19.6392 17.6078 19.3908C17.4629 19.1433 17.5927 19.0092 17.7167 18.8858C17.8289 18.775 17.9653 18.5967 18.0901 18.4517C18.2165 18.3083 18.2576 18.205 18.3413 18.0392C18.4242 17.8742 18.3832 17.7292 18.3204 17.605C18.2576 17.4817 17.7602 16.2625 17.5534 15.7667C17.3507 15.2842 17.1456 15.3492 16.9932 15.3417L16.516 15.3333C16.3502 15.3333 16.0805 15.395 15.8528 15.6433C15.6251 15.8917 14.982 16.49 14.982 17.7092C14.982 18.9283 15.8737 20.1058 15.9977 20.2708C16.1224 20.4358 17.7518 22.9375 20.2478 24.01C20.8415 24.265 21.3054 24.4175 21.6662 24.5317C22.2624 24.72 22.805 24.6933 23.2337 24.63C23.7118 24.5592 24.7057 24.0308 24.9133 23.4525C25.121 22.8733 25.121 22.3775 25.0582 22.2742Z" fill="#374151"/>
</svg>
